<?xml version="1.0" standalone="no"?>
<!DOCTYPE svg PUBLIC "-//W3C//DTD SVG 20010904//EN"
 "http://www.w3.org/TR/2001/REC-SVG-20010904/DTD/svg10.dtd">
<svg version="1.0" xmlns="http://www.w3.org/2000/svg"
 width="700.000000pt" height="700.000000pt" viewBox="0 0 700.000000 700.000000"
 preserveAspectRatio="xMidYMid meet">
<metadata>
Created by potrace 1.11, written by Peter Selinger 2001-2013
</metadata>
<g transform="translate(0.000000,700.000000) scale(0.100000,-0.100000)"
fill="#000000" stroke="none">
<path d="M3295 6089 c-110 -39 -209 -75 -220 -79 -22 -10 -194 -72 -450 -162
-230 -81 -257 -91 -835 -298 -278 -100 -512 -183 -520 -185 -8 -2 -53 -18
-100 -35 -47 -17 -121 -44 -165 -59 -114 -41 -114 -41 -110 -59 1 -9 6 -46 10
-82 4 -36 9 -78 11 -95 2 -16 6 -52 9 -80 3 -27 8 -66 10 -85 2 -19 7 -60 10
-90 3 -30 8 -71 10 -90 5 -36 11 -92 20 -170 3 -25 9 -85 15 -135 6 -49 13
-110 16 -135 3 -25 7 -61 9 -80 6 -40 12 -94 20 -165 3 -27 7 -66 10 -85 2
-19 6 -57 10 -85 3 -27 8 -70 11 -95 3 -25 7 -64 9 -88 2 -23 6 -55 9 -70 3
-15 8 -57 11 -93 3 -36 7 -76 10 -90 2 -13 6 -53 9 -89 4 -36 8 -76 11 -90 2
-14 9 -70 15 -125 13 -114 21 -185 35 -307 3 -24 7 -68 10 -98 6 -54 11 -95
20 -155 2 -16 7 -57 10 -90 3 -33 10 -96 15 -140 5 -44 12 -102 15 -130 3 -27
8 -68 11 -90 2 -22 7 -60 10 -85 2 -25 7 -61 9 -80 2 -19 7 -57 11 -85 3 -27
7 -51 8 -51 0 -1 84 -48 186 -104 102 -56 205 -114 230 -127 99 -56 759 -422
823 -457 37 -20 82 -45 100 -55 30 -17 98 -54 192 -106 22 -13 183 -102 358
-199 l319 -177 61 34 c34 19 82 46 107 59 25 14 126 70 225 125 99 55 200 111
225 125 25 14 113 62 195 108 217 119 217 119 600 332 193 107 375 208 405
225 323 178 390 217 391 226 0 7 2 19 3 27 2 8 9 62 15 120 13 118 19 169 26
220 3 19 7 60 10 90 9 81 14 131 20 170 2 19 7 62 10 95 3 33 8 69 10 80 2 11
7 52 10 90 3 39 8 77 10 85 2 8 6 44 10 80 3 36 10 101 15 145 6 44 12 103 15
130 3 28 8 61 10 75 2 14 7 57 11 95 3 39 8 77 9 85 2 8 6 47 10 85 4 39 8 81
10 95 2 14 6 43 9 65 3 22 8 67 11 100 3 33 7 71 10 85 2 14 7 52 10 85 3 33
10 94 15 135 5 41 12 98 15 125 3 28 8 66 10 85 2 19 7 60 10 90 3 30 8 71 10
90 12 95 26 223 40 345 10 101 46 403 50 433 6 37 15 31 -145 87 -52 19 -151
54 -220 78 -298 107 -604 216 -860 307 -151 54 -306 110 -345 123 -38 14 -173
62 -300 107 -126 45 -291 104 -365 130 -74 27 -186 67 -248 89 -63 23 -117 41
-120 40 -4 0 -97 -32 -207 -70z"/>
</g>
</svg>
